<?xml version="1.0" encoding="UTF-8"?>
<svg version="1.1" viewBox="0 0 2048 1046" width="1441" height="736" xmlns="http://www.w3.org/2000/svg">
<path transform="translate(0)" d="m0 0h2048v1046h-2048z" fill="#FDFDFD"/>
<path transform="translate(835,138)" d="m0 0 5 2 13 11 14 11 11 9 12 11 4 4-1 2h-9v43h8l11-29 1-2-4-1v-2l16-6h3l3-11 3-7 10 3-1 9 11-2h8l14 34 7 19-1 4-5-1-9 26 2 4 9 7 2-4 13-20-1-4-3-4 21-6 7-13 5 2 4 3-3 9 15-1 2 5 8 39 1 16-4-2v-2l-4 4-10 17-3 5 2 4 11 12 10 10 7 8 13 14 7 8 31 31 11 9 11 10 13 10 17 12 18 10 15 7 21 7 14 3 7 1h23l22-4 15-5 16-8 14-10 14-14 10-15 7-16 3-12 1-7v-19l-3-17-6-16-8-14-12-14-10-9-14-9-14-7-16-5-15-3h-32l-25 5-24 8-22 11-19 12-30 23-11 10-8 7-4 2-16-16-3-5 15-15-2-6-9-16-2-3-8 1 3-17 10-39 2-3h13l-1-7 7-5h2l6 13 18 6 4 1-1 3-5 2 13 22v2l10-5h2l-8-27-1-2-5 1 1-7 5-12v-7l-2-11v-5l7-1 3 6 7-17 6 1 41 19-2 5h-4l5 17 4 10h10l-1-36-5-1 2-4 11-12 12-13 8-8 2-3 4 2 10 10 1-9h10l1 20 9 11 5 6h-8l1 36h10l8-19-5-4 21-11 5-1 24 12v-3l53-1 2 15 2 14 7 6 4-2 7-6 8 7-2 4-4 5 2 4 5 5v13l-2 20-8-4-2 4-7 8-9 12 2 4h40l1-9 5 5 16 22h20l1 1v14l-11 1 14 22-2 5-10 15-13 18-8 11-11 15h-1v-9h-39l4 6 9 10 5 5 7-2 1 1 1 15-3 15-7 8-15 15-5 16-7 26-1 2h-38l7 14v2l-7 4h-3l-3-6v-3l-13 9-10-2-13-5-4-2 1-4 2-2-12-28v-2h-7v42l8 1-6 7-7 7-11 9-1 26-2 1-13-1-2-13-13 11-7 4-30-26-10-9-8-7-9-9v-2h8v-45l-7-1-2 6-6 14 2 8-16 4h-4l-2 6-7 13-9-5 1-5 1-3-12 2h-6l-16-35-8-20v-1h7l9-24-2-4-5-4-16 24-1 4 4 5v2l-23 1-10 15-9-5 1-5 3-5-15-1-2-6-5-37-1-15 5 2 2 1 2-5 10-16 4-6-2-4-10-10-7-8-8-8-7-8-12-13-22-22-8-7-13-12-14-11-17-12-15-9-21-10-21-7-15-3-9-1h-20l-19 3-16 5-14 6-14 9-13 11-9 10-9 14-5 10-5 16-2 13v14l3 17 5 13 9 16 9 11 9 9 16 11 16 8 20 6 18 3h23l20-3 21-6 20-8 16-8 21-13 17-13 14-11 10-9 8-7 5-3 16 17 4 5-1 4-12 11-9 8 2 6 10 18v2l10-3-3 11-13 41-2 5h-19l3 6-1 4-5 3-4-1-6-11v-3l-17-3-2-1 2-4h2l-10-18-4-6v-2l-10 6 2 11 5 15 1 2 3-5 5 1-2 9-6 16 3 11 2 7-9 3-2-2v-4h-2l-1 5-4 12-9-3-39-17-3-4 2-3h5l-3-4-6-21v-3l-11 2v34h8v3l-18 18-8 7-13 12-4-1-10-10-2-1v9h-11l-1-22-13-13-2-4 8-1v-35h-8l-9 18 1 5 2 4-22 5-6 1-23-15-3-1-45-1-6-32-4-4-8 8-4-1-4-5 2-4 5-6-10-10-1-2v-14l2-12 1-2 6 2 7-7 7-8 6-6v-4l-38-1v8l-5-5-10-13-7-11-21-1-1-4v-10l1-1 9-1-11-18 2-5 13-19 10-13 12-17 7-9h2v11h25l15 1-4-6-9-10-4-2-4 4h-2v-18l1-13 13-12 8-7h2l1-8 12-45 1-2 18 2 18 3-6-13 1-3 7-3h3l3 6 11-6 5 2 20 10 4 3-6 3h-3l11 27 1 2 5 1v-44l-9-1 2-4 13-12 6-5 1-25h15l1 12 15-12z" fill="#902E06"/>
<path transform="translate(1234,156)" d="m0 0 4 2 10 10 1-9h10l1 20 9 11 5 6h-8l1 36h10l8-19-5-4 21-11 5-1 24 12v-3l53-1 2 15 2 14 7 6 4-2 7-6 8 7-2 4-4 5 2 4 5 5v13l-2 20-8-4-2 4-7 8-9 12 2 4h40l1-9 5 5 16 22h20l1 1v14l-11 1 14 22-2 5-10 15-13 18-8 11-11 15h-1v-9h-39l4 6 9 10 5 5 7-2 1 1 1 15-3 15-7 8-15 15-5 16-7 26-1 2h-38l7 14v2l-7 4h-3l-3-6v-3l-13 9-10-2-13-5-4-2 1-4 2-2-12-28v-2h-7v42l8 1-6 7-7 7-11 9-1 26-2 1-13-1-2-13-13 11-7 4-30-26-10-9-8-7-9-9v-2h8v-45l-7-1-2 6-6 14 2 8-16 4h-4l-2 6-7 13-9-5 1-5 1-3-12 2h-6l-16-35-8-20v-1h7l2-3 4-8 4-11v-5l-5-6 4-1-5-17-1-7 2-13 2-2h10l1-5 10 5 13 11 19 13 15 9 19 9 21 7 14 3 7 1h23l22-4 15-5 16-8 14-10 14-14 10-15 7-16 3-12 1-7v-19l-3-17-6-16-8-14-12-14-10-9-14-9-14-7-16-5-15-3h-32l-25 5-24 8-22 11-19 12-30 23-11 10-8 7-4 2-16-16-3-5 15-15-2-6-9-16-2-3-8 1 3-17 10-39 2-3h13l-1-7 7-5h2l6 13 18 6 4 1-1 3-5 2 13 22v2l10-5h2l-8-27-1-2-5 1 1-7 5-12v-7l-2-11v-5l7-1 3 6 7-17 6 1 41 19-2 5h-4l5 17 4 10h10l-1-36-5-1 2-4 11-12 12-13 8-8z" fill="#E9942B"/>
<path transform="translate(822,271)" d="m0 0h20l20 3 20 6 18 8 15 8 18 12 13 10 11 9 12 11 15 14 22 22 7 8 12 13 16 17 3 3-2 5-14 22-1 2-5-2-2-1 2 15 3 23v5l-3-3-10-3 2-9 2-5-7 3h-3l-13-24 2-4 13-12 7-6-1-4-7-8-11-12-6 4-12 11-14 11-11 9-19 13-15 9-16 8-21 8-18 5-20 3h-23l-18-3-20-6-16-8-13-9-10-9-10-11-9-15-5-11-4-15-1-8v-14l3-17 5-14 5-10 9-13 11-12 15-12 16-9 16-6 18-4z" fill="#FEFEFD"/>
<path transform="translate(835,138)" d="m0 0 5 2 13 11 14 11 11 9 12 11 4 4-1 2h-9v43h8l11-29 1-2-4-1v-2l16-6h3l3-11 3-7 10 3-1 9 11-2h8l14 34 7 19-1 4-5-1-9 26 2 4 9 7 2-4 13-20-1-4-3-4 21-6 7-13 5 2 4 3-3 9 15-1 2 5 8 39 1 16-4-2v-2l-4 4-10 17-3 5 2 4 11 12 10 10 7 8 13 14 7 8 31 31 11 9 5 6-4-2-3-2v5l-4 1h-7l-2 5-1 10 5 21v2l-3 2 5 5-1 8-7 17-1-3 7-19-2-4-5-4-16 24-1 4 4 5v2l-23 1-10 15-9-5 1-5 3-5-15-1-2-6-5-37-1-15 5 2 2 1 2-5 10-16 4-6-2-4-10-10-7-8-8-8-7-8-12-13-22-22-8-7-13-12-14-11-17-12-15-9-21-10-21-7-15-3-26-2v-1l-8-1 1-5 2-2 4-1-4-2h-9l-9-2-4-10 1-2v-9l3-7-2-12 3-3-2-1v-8h5v-2h-5l-7-7v-12l-2-4 2-5 9-9 4-7h2l1-4-2-2 5-2v3h2v-13l-2 1 1 4-2 4-5 2-1 1-1 7-2-1-1 6h-1v-25h15l1 12 15-12z" fill="#B15618"/>
<path transform="translate(1224,726)" d="m0 0h27l15 4 16 8 13 11 8 11 7 14 4 15 1 9v15l-3 17-5 13-6 11-11 12-9 7-16 8-12 3-8 1h-14l-15-3-12-5-9-6-4-3v69h-44v-208l1-1h41l1 15 10-8 12-6z" fill="#050301"/>
<path transform="translate(1110,418)" d="m0 0 10 5 13 11 19 13 15 9 19 9 21 7 14 3 7 1h23l22-4 15-5 5-1-4 3-5 1v2l6-1 10-4 7-4h6l-1 2h-2v5l-8 5 1 5 8 10 3 5 3 2 2 4v6h5l-5 5-7-1-1 2v-2l-9 3-5 2-9 1-2 2v-2h-7v42l8 1-6 7-7 7-11 9-1 26-2 1-13-1-2-13-13 11-7 4-30-26-10-9-8-7-9-9v-2h8v-45l-7-1-2 6-6 14 2 8-16 4h-4l-2 6-7 13-9-5 1-5 1-3-12 2h-6l-16-35-8-20v-1h7l2-3 4-8 4-11v-5l-5-6 4-1-5-17-1-7 2-13 2-2h10z" fill="#D5802B"/>
<path transform="translate(1234,156)" d="m0 0 4 2 10 10 1-9h10l1 20 9 11 5 6h-8l1 36h10l8-19-5-4 21-11 5-1 18 9-3 1-14-7-7 1-8 4-1 5-2-3-1 4 5 1 11-5 11 2 2 2-7 8h-17l1 3-4 4 9 3 2 1 1-5 9 3 2 2-5-1-5-2v4l13 5-1 7-2 5h-7v2l5 2 3 8-3 5-1 13 3 3v3l2 1-7-1-8-4-11-1 2 2-5-1-16-5-15-3h-32l-25 5-24 8-22 11-19 12-30 23-11 10-8 7-4 2-16-16-3-5 15-15-2-6-9-16-2-3-8 1 3-17 10-39 2-3h13l-1-7 7-5h2l6 13 18 6 4 1-1 3-5 2 13 22v2l10-5h2l-8-27-1-2-5 1 1-7 5-12v-7l-2-11v-5l7-1 3 6 7-17 6 1 41 19-2 5h-4l5 17 4 10h10l-1-36-5-1 2-4 11-12 12-13 8-8z" fill="#D6812C"/>
<path transform="translate(834,725)" d="m0 0h13l16 2 16 5 13 7 10 8 8 8 7 11 5 11 3 11 1 7v20l-3 15-7 16-10 13-11 10-14 8-14 5-17 3h-18l-21-4-16-7-10-7-8-7-8-10-8-16-3-9-2-13v-16l2-12 6-16 7-11 11-12 10-7 16-8 17-4z" fill="#050301"/>
<path transform="translate(1018,726)" d="m0 0h31l17 4 16 8 9 6 11 11 8 12 6 16 2 9v26l-3 12-6 15-8 11-6 7-12 9-19 9-14 3-7 1h-18l-17-3-15-5-13-8-10-8-9-11-8-16-4-14-1-8v-13l3-17 4-11 8-13 9-10 8-7 16-9 16-5z" fill="#050201"/>
<path transform="translate(995,396)" d="m0 0 7 6 14 16-1 4-12 11-9 8 2 6 10 18v2l10-3-3 11-13 41-2 5h-19l3 6-1 4-5 3-4-1-6-11v-3l-17-3-2-1 2-4h2l-10-18-4-6v-2l-10 6 2 11 5 15 1 2 3-5 5 1-2 9-6 16 3 11 2 7-9 3-2-2v-4h-2l-1 5-4 12-9-3-39-17-3-4 2-3h5l-3-4-6-21v-3l-11 2v34h8v3l-18 18-8 7-13 12-4-1-9-9v-6l3-3h2l-2-5-6-1v2l-3-1 2-12h4l-3-3 1-3-4-4v-2l-5-2v-5l1-2-1-7h6l1-1 8 1 9-3 1 2v15l-1 3h3v-27-3l-4-2h-6v-2l-7-3-5-4-3-5v-7l1-1-1-7-1-3-3-1 1-2 5 1v-2l4 1 4-1 29-1 20-3 21-6 20-8 16-8 21-13 17-13 14-11 10-9 8-7z" fill="#B15617"/>
<path transform="translate(1383,726)" d="m0 0h37l17 4 14 7 9 7 7 10 5 11 3 13v104h-40l-1-16-9 9-13 7-15 3h-17l-16-3-14-7-10-9-6-9-3-7-1-6v-13l2-9 6-11 7-7 9-6 14-5 10-2 11-1h42l-4-14-7-8-8-4-9-2h-13l-16 3-13 5-8 5h-2l-12-23-3-5 2-4 14-8 16-6z" fill="#050301"/>
<path transform="translate(595,680)" d="m0 0h44l1 1v163h101v38h-146z" fill="#050201"/>
<path transform="translate(1011,322)" d="m0 0h2l1 2h2l6 11 8 10 4 6v2h8v-2h5l7 7 7 8 11 12 29 29 11 9 5 6-4-2-3-2v5l-4 1h-7l-2 5-1 10 5 21v2l-3 2 5 5-1 8-7 17-1-3 7-19-2-4-5-4-16 24-1 4 4 5v2l-23 1-10 15-9-5 1-5 3-5-15-1-2-6-5-37-1-15 5 2 2 1 2-5 10-16 4-6 2-1-7-8-15-16-7-8-7-7-2-4v-3l-5-6 1-2 5 3 5-1-1-28-2-5v-7z" fill="#BE6621"/>
<path transform="translate(835,138)" d="m0 0 5 2 13 11 14 11 11 9 12 11 4 4-1 2-9-1v-1l6-1-8-8-11-9-15-12-1 2h-2l2 4-1 5 1 9 4 4 3 1v4h-3l4 5h-2l1 2 9 1v1l-6 1-1 6h-1v-6h-6v7h5l-1 2h-4v9h6l1 7h2l2 7-1 19 2 17-2 3h7l-3 2 4 2h-2l-1 2-10-1-11-2h-6l3 2h-23v-1l-8-1 1-5 2-2 4-1-4-2h-9l-9-2-4-10 1-2v-9l3-7-2-12 3-3-2-1v-8h5v-2h-5l-7-7v-12l-2-4 2-5 9-9 4-7h2l1-4-2-2 5-2v3h2v-13l-2 1 1 4-2 4-5 2-1 1-1 7-2-1-1 6h-1v-25h15l1 12 15-12z" fill="#A4430F"/>
<path transform="translate(1025,762)" d="m0 0h17l11 4 8 6 7 9 4 9 2 12-1 13-4 13-7 9-7 6-9 4-4 1h-16l-10-3-9-6-7-8-5-11-2-9v-13l4-14 6-9 7-7 10-5z" fill="#FDFDFC"/>
<path transform="translate(833,762)" d="m0 0h16l11 4 6 4 8 8 5 10 2 8v18l-3 10-6 10-4 5-10 6-10 3h-14l-10-3-9-6-8-9-5-12-1-4v-18l4-13 8-11 10-7z" fill="#FDFDFD"/>
<path transform="translate(1223,762)" d="m0 0h15l12 4 10 9 6 9 3 9 1 5v14l-3 12-6 10-4 5-9 6-10 3h-14l-13-4-10-9-4-5-5-13-1-5v-13l3-13 6-10 8-8 7-4z" fill="#FDFDFD"/>
<path transform="translate(859,475)" d="m0 0h7l-2 1 1 6h2v2h3v2h-2v2h-2l2 9 4-1v3h-3l-1 2h8v1h-7l1 2 7-1 7 2-2 1-1 3-10 3-9 2-3 1v2l3 1-4 1v34h8v3l-18 18-8 7-13 12-4-1-9-9v-6l3-3h2l-2-5-6-1v2l-3-1 2-12h4l-3-3 1-3-4-4v-2l-5-2v-5l1-2-1-7h6l1-1 8 1 9-3 1 2v15l-1 3h3v-27-3l-4-2h-6v-2l-7-3-5-4-3-5v-7l1-1-1-7-1-3-3-1 1-2 5 1v-2l4 1 4-1 29-1z" fill="#A3430F"/>
<path transform="translate(1089,219)" d="m0 0h2l6 13 18 6 4 1-1 3-5 2 13 22-1 2-5-5-11-2-3-2-1 3v3h-2l-3-4 1-2-5 1-4 4-1 10-4 1-6 4h-2l6 12 6 8 9-6 2 1-4 4 7 1-1 4 2 2v3l3-1 7 2 4-1 2 1-1 4-3 3h2v2l-12 9-13 11-13 12-4-2-14-14-3-5 15-15-2-6-9-16-2-3-8 1 3-17 10-39 2-3h13l-1-7z" fill="#BE651F"/>
<path transform="translate(1390,818)" d="m0 0h41v13l-4 10-4 5-7 4-7 3-5 1h-14l-8-3-6-5-2-5v-11l4-6 5-4z" fill="#FDFDFC"/>
<path transform="translate(1012,244)" d="m0 0 4 1 7 6 3 5v18l1 7-1 1-7-1-4-4-2 2-1-2-5 6-7 2-3 3-4 6-4-1-6-4 1-5 10-16 4 2 6 4 3-2-4-6 3-3h2v-9l2-8z" fill="#BD641F"/>
<path transform="translate(938,514)" d="m0 0 5 1-2 9-6 16 3 11 2 7-9 3-2-2v-4h-2l-1 5-4 12-9-3-34-15-1-3 2-2h4l-2-2 5 1 28 12h2l8-18 8-20h2l1-6z" fill="#BA6426"/>
<path transform="translate(1294,194)" d="m0 0h5v2l5 1-3 2-19 10 4 5-8 18-3 1-8-1-1-9v-27h8v1h-7v6l2-1 9-1 11-5z" fill="#FEFEF8"/>
<path transform="translate(1125,223)" d="m0 0 2 1-3 11 4-1 2-2 8 27v4l-9 5h-3l-13-22v-2l5-3 1-2-7-1-3-2 4-2 2-4 7-6z" fill="#FFFFF8"/>
<path transform="translate(1304,197)" d="m0 0 6 2 14 7-3 1-14-7-7 1-8 4-1 5-2-3-1 4 5 1 11-5 11 2 2 2-7 8h-17l1 3-4 4 9 3 2 1 1-5 9 3 2 2-5-1-5-2 1 6h-3l-2 5-3-1 2-5-10-3-3 4v-2h-5l-2 1 3-9 4-10-5-4 21-11z" fill="#D57F29"/>
<path transform="translate(1198,195)" d="m0 0 7 2v36l-10 1-4-8-5-15v-5l-4-2 5 1 6 2 1-6 4-4z" fill="#FEFEF8"/>
<path transform="translate(1036,277)" d="m0 0 2 4 2 1 1 16-4-2v-2l-4 4-5 9h-3v-2l-7-1-1-3-2 3-4-2 2-4h-2l-3 3-3-2 2-6h2v-3h2l1-3 5-1 3-1-5-3 3-1 9 3 5 2v2h4z" fill="#BE651F"/>
<path transform="translate(1098,506)" d="m0 0 8 1 9 3h3l-2 12-2 2v12l-3 5h-2l-8-16-6-13v-4z" fill="#BE6520"/>
<path transform="translate(1279,517)" d="m0 0h7l13 30-3 3-2 3-4-6h-10l1 12h-2z" fill="#FFFFF8"/>
<path transform="translate(1399,292)" d="m0 0 4 1v4l-4 4v5l6 2h18l4 1 1-6 2 2-1 9-1 1h-40l-3-3 2-5z" fill="#FFFFF8"/>
<path transform="translate(1220,521)" d="m0 0h14v28h-14z" fill="#FEFEF8"/>
<path transform="translate(1169,512)" d="m0 0 7 1v34h-2l-3-4-6-4-2 1-3-5 1-6z" fill="#FFFFF8"/>
<path transform="translate(829,196)" d="m0 0h12l1 1v26h-13l-1-14v-12z" fill="#FEFEFD"/>
<path transform="translate(1399,362)" d="m0 0h22l1 1v13l-1 1h-23v-14z" fill="#FEFEF8"/>
<path transform="translate(1347,242)" d="m0 0 11 6-6 12-6 9-5-2-8-5 7-12z" fill="#FFFFF8"/>
<path transform="translate(647,361)" d="m0 0h24v14h-24z" fill="#FEFEFD"/>
<path transform="translate(1345,478)" d="m0 0h2l10 18 1 4-9 6h-2l-12-21 3-3z" fill="#FFFFF8"/>
<path transform="translate(830,519)" d="m0 0h11l1 1v24l-1 1h-11z" fill="#FEFEFD"/>
<path transform="translate(723,239)" d="m0 0 3 1 10 17-1 4-8 5h-2l-10-18-1-3z" fill="#FEFEFD"/>
<path transform="translate(718,473)" d="m0 0 4 1 7 6-2 5-9 12-4 2-8-7 7-12z" fill="#FEFEF8"/>
<path transform="translate(1302,539)" d="m0 0h17l7 3 4 3v3h-3l-1 3-7 2-13-2-5-4z" fill="#D6802A"/>
<path transform="translate(1071,444)" d="m0 0 4 1 6 5-2 6-10 14-9-5-1-4z" fill="#FFFFF8"/>
<path transform="translate(1266,467)" d="m0 0 9 1 5 2-4 2-18 4-7 1h-23v-3h4v-2l16-3z" fill="#FEFEF8"/>
<path transform="translate(994,268)" d="m0 0 4 2 6 5-2 5-9 14-4-1-6-4 1-5z" fill="#FFFFF8"/>
<path transform="translate(1087,274)" d="m0 0 4 2 9 16-1 3-9 5-8-13-3-5v-3z" fill="#FFFFF8"/>
<path transform="translate(1152,228)" d="m0 0 2 2 5 15-3 3-9 4h-2l-5-16 1-4z" fill="#FEFEF8"/>
<path transform="translate(1172,220)" d="m0 0h2l6 20v3l-9 3-3-1-5-17v-5z" fill="#FFFFF8"/>
<path transform="translate(1094,463)" d="m0 0 7 6 1 3-7 19-1-2-5-2-5-4v-2l-2-1z" fill="#FFFFF8"/>
<path transform="translate(893,507)" d="m0 0 3 3 5 15-1 4-8 3h-3l-5-16v-5z" fill="#FEFEF8"/>
<path transform="translate(928,223)" d="m0 0 10 5-3 10-6 11-6-2-3-2 1-6 6-15z" fill="#FFFFF8"/>
<path transform="translate(1130,490)" d="m0 0 6 2 5 3-2 6-6 11-3 1-9-5 8-17z" fill="#FFFFF8"/>
<path transform="translate(1223,271)" d="m0 0h32l15 3 16 5-1 2-7 1-7-3-18-4h-36l-1-3z" fill="#FEFEF8"/>
<path transform="translate(828,195)" d="m0 0h12v1l-11 1v27h13v1h-14l-8-4v-2l-4-2v-2l-7-1v-1h6v-8h-5l4-2 6 5 4 1 3-13z" fill="#933107"/>
<path transform="translate(978,457)" d="m0 0 3 3 7 14-1 4-8 4-5-8-5-11z" fill="#FFFFF8"/>
<path transform="translate(1320,199)" d="m0 0h22l8 2v2l2 1 23 1v1h-45v3l-6-2-8-4z" fill="#FFFFF8"/>
<path transform="translate(1230,207)" d="m0 0h10v24h-10z" fill="#FEFEF8"/>
<path transform="translate(1288,228)" d="m0 0 10 3 1 3-2 3 10 5-3 1-31-5-3-3 1-1h6v-2l5-2 4 1z" fill="#E8932A"/>
<path transform="translate(1319,440)" d="m0 0h7l-2 4-7 7-13 9-3 1-3-4 2-5 6-5h3v-2z" fill="#FFFFF8"/>
<path transform="translate(1256,185)" d="m0 0 4 3 3 7v3l-5 5-4 1-1 5-3 1v2l-4 1-1-3h-2l-2-4h-9l3-3 14-2 6-6z" fill="#EB9B39"/>
<path transform="translate(801,195)" d="m0 0h6v3h2l1-3 5 1v6l-2 2 2 1v7h-14v-7h5v-2h-5z" fill="#B55919"/>
<path transform="translate(1384,210)" d="m0 0 3 2 2 7 1 9 1 1 9 1 3 4-7 7-4-2-6-5-2-14z" fill="#FFFFF8"/>
<path transform="translate(1312,296)" d="m0 0 4 1 12 11 9 11-1 2-6-1-5-4-5-5-7-8z" fill="#FFFFF8"/>
<path transform="translate(981,249)" d="m0 0h5l-1 5-13 19-2 3-4-2-4-4 6-7 7-1 2-9z" fill="#FEFEF8"/>
<path transform="translate(810,528)" d="m0 0h5l1 1v5l-5 1v2h5v6l-7 3-6-3v-5l1-2-1-7h6z" fill="#C17A4D"/>
<path transform="translate(801,140)" d="m0 0h15l1 15h-2v-14l-2 1 1 4-2 4-5 2-1 1-1 7-2-1-1 6h-1z" fill="#A3420E"/>
<path transform="translate(1021,456)" d="m0 0h1l3 23v5l-3-3-10-3 2-9 3-6 4-2z" fill="#FFFFF8"/>
<path transform="translate(883,516)" d="m0 0h2l3 11v4l-7 4-5-3-1-1v-8l2-3 5-2z" fill="#A4430F"/>
<path transform="translate(1344,409)" d="m0 0 3 1-2 6-7 12-4 5-3-1 2-9 5-10z" fill="#FEFEF8"/>
<path transform="translate(857,195)" d="m0 0h14v7h-7v3h-2v7h-5v-8l4-1-4-1z" fill="#C0661F"/>
<path transform="translate(1471,333)" d="m0 0h1l1 20-3 11-4-5-7-12h12z" fill="#FEFEF8"/>
<path transform="translate(1152,228)" d="m0 0 2 2-1 4-2-1-2 1v13l-4 1-3-5-2-10z" fill="#FEFEFD"/>
<path transform="translate(718,473)" d="m0 0 4 1 7 6-3 1-5 1-4 4-6 3-1 5-4-2 7-12z" fill="#FEFEFD"/>
<path transform="translate(726,250)" d="m0 0h6l4 7-1 4-8 5h-2l-2-4 2-11z" fill="#FFFFF8"/>
<path transform="translate(1012,287)" d="m0 0 4 3-2 4 5-3 2 3-4 7-2 3-4-2 2-4h-2l-3 3-3-2 2-6h2v-3h2z" fill="#E9C8A8"/>
<path transform="translate(1128,311)" d="m0 0 2 1v5l-9 8-4 2-5-1 1-4z" fill="#FFFFF8"/>
<path transform="translate(947,428)" d="m0 0h6l1 3-15 11-4-3 1-4 9-6z" fill="#FEFEF8"/>
<path transform="translate(1342,333)" d="m0 0h3l6 16 2 9v7l-3-3-4-9z" fill="#FFFFF8"/>
<path transform="translate(1185,280)" d="m0 0 2 1-3 5-13 7h-6l-1-4 13-6z" fill="#FEFEF8"/>
<path transform="translate(1245,595)" d="m0 0h1l1 14h13v1h-14l-1-2-7 1-4-5z" fill="#FFFFF8"/>
<path transform="translate(986,355)" d="m0 0 7 6 10 10-1 2-6-1-5-5-6-8z" fill="#FFFFF8"/>
<path transform="translate(1019,390)" d="m0 0 7 6 8 9-1 2-6-1-7-7-2-4z" fill="#FFFFF8"/>
<path transform="translate(994,268)" d="m0 0 4 2 6 5-1 4h-2v-2l-14 4 2-5z" fill="#FEFEFD"/>
<path transform="translate(1405,484)" d="m0 0 2 1-1 6-10 10-6 2 1-5z" fill="#FFFFF8"/>
<path transform="translate(846,147)" d="m0 0 5 2 17 14 10 8 12 11 4 4-1 2-9-1v-1l6-1-8-8-11-9-16-13-9-7z" fill="#A0400D"/>
<path transform="translate(882,191)" d="m0 0h1l1 40 3 1-5-1v-2h-2l-1-3 2-6v-16h-4l1-5 3-1z" fill="#A2410E"/>
<path transform="translate(946,236)" d="m0 0h3v3h5l1 3-1 2h-4v3h2l-2 5-3-1v-5l-2 3-3-1 2-5 3-1-3-3z" fill="#ECD3BB"/>
<path transform="translate(1071,304)" d="m0 0h2l4 8-2 4-5 4-2-2v-8l2-5z" fill="#FFFFF8"/>
<path transform="translate(915,505)" d="m0 0h2l1 5-2 2 3 1 1 5-3 1-3-1-1 3h-3l-1-5 4-6-1-3z" fill="#ECD4BD"/>
<path transform="translate(960,480)" d="m0 0 4 1 1 5h2l1 5-4 1v-2h-3l1 4-4 2-2-4 2-2 1-9z" fill="#EED4B9"/>
<path transform="translate(1385,459)" d="m0 0 4 2-1 4-8 9h-2v-2h-2l2-4z" fill="#FFFFF8"/>
<path transform="translate(1379,454)" d="m0 0 5 3-4 6-5 6-4-2 2-5z" fill="#FFFFF8"/>
<path transform="translate(1458,389)" d="m0 0 2 4-11 15-8 11-2 1 2-4 6-9 4-8z" fill="#D8832A"/>
<path transform="translate(1058,266)" d="m0 0 2 1-3 15-5-2 1-11z" fill="#FEFEF8"/>
<path transform="translate(1301,233)" d="m0 0 5 1 8 4-1 5-9-3-5-2z" fill="#FFFFF8"/>
<path transform="translate(1108,322)" d="m0 0v3l-1 3-11 9-3 2-2-1 2-4 9-8z" fill="#CF7826"/>
<path transform="translate(1341,542)" d="m0 0h38v1l-31 1-1 7-2 2-4-9z" fill="#FFFFF8"/>
<path transform="translate(1411,242)" d="m0 0 3 1 1 5-2 8-7-6 2-5z" fill="#FFFFF8"/>
<path transform="translate(923,236)" d="m0 0 2 4 3 3 3 1-2 5-6-2-3-2 1-6z" fill="#FEFEFC"/>
<path transform="translate(932,489)" d="m0 0 5 1v4l-6 8h-3l-1-6 3-1z" fill="#FFFFF8"/>
<path transform="translate(1343,242)" d="m0 0 4 1-8 10-6 9-1-3 1-4 1 1v-4l4-4z" fill="#D6802A"/>
<path transform="translate(1303,227)" d="m0 0 5 1 8 4v4l-5-1-9-4z" fill="#FFFFF8"/>
<path transform="translate(816,140)" d="m0 0 1 4 6-2 3 3-5 5-5 3z" fill="#FFFFF8"/>
<path transform="translate(1390,425)" d="m0 0h8l2 4-1 6h-3l-6-8z" fill="#FFFFF8"/>
<path transform="translate(1034,424)" d="m0 0 4 1-6 11h-3l-1-6 4-5z" fill="#FFFFF8"/>
<path transform="translate(1017,386)" d="m0 0 4 2 11 12 14 16-2 1-7-8-16-17-4-4z" fill="#B85D1A"/>
<path transform="translate(870,524)" d="m0 0 2 3 1 6-3 3h-5l1-9 3-1z" fill="#FEFEF8"/>
<path transform="translate(1288,228)" d="m0 0 10 3 1 3-3 3-10-4z" fill="#FFFFF8"/>
<path transform="translate(793,273)" d="m0 0 1 2-2 2-3 2-11 4-1-3 6-4z" fill="#A2420E"/>
<path transform="translate(1243,158)" d="m0 0 4 1 1-1h11v1h-10v10l-7-6v-4z" fill="#FEFEF8"/>
<path transform="translate(800,569)" d="m0 0h1l1 15 5-1 3 6-10 1z" fill="#B55818"/>
<path transform="translate(873,545)" d="m0 0 7 1 5 3v1h-5v3l-6-1-3-4z" fill="#A3420E"/>
<path transform="translate(1388,444)" d="m0 0 4 4-6 8-4-2v-3z" fill="#FFFFF8"/>
<path transform="translate(1019,232)" d="m0 0h5l1 5 2 2h-12l1-5z" fill="#FEFEF8"/>
<path transform="translate(895,215)" d="m0 0h3l-1 5-3 9-4-4-1-3z" fill="#FEFEF9"/>
<path transform="translate(849,569)" d="m0 0h2l-2 4-6 5-7-2 3-4 9-2z" fill="#943207"/>
<path transform="translate(1386,514)" d="m0 0 3 4-1 8-3 4h-2l-1 2 2-11z" fill="#FFFFF8"/>
<path transform="translate(1167,188)" d="m0 0 9 2 11 6-3 2-16-7z" fill="#FEFEF8"/>
<path transform="translate(760,509)" d="m0 0 5 1 5 3-2 5-10-5z" fill="#FEFEFC"/>
<path transform="translate(747,502)" d="m0 0 6 2 5 3-1 4-4-1-8-4z" fill="#FEFEF8"/>
<path transform="translate(1394,449)" d="m0 0 3 3-2 4-5 5-3-4z" fill="#FFFFF8"/>
<path transform="translate(1337,319)" d="m0 0 6 2 5 10v2h-4l-7-12z" fill="#D7812A"/>
<path transform="translate(1380,452)" d="m0 0 4 3h2l2-3 3 1-3 5 3 4-2 1-2-3h-2l-5 5 1-4 2-4-4-4z" fill="#DC872A"/>
<path transform="translate(1192,221)" d="m0 0 5 5 2 7-4 1-4-8z" fill="#FEFEFD"/>
<path transform="translate(1330,437)" d="m0 0v3l-9 9v3l-5 2-5 3-2-1 11-9z" fill="#D6802A"/>
<path transform="translate(1470,377)" d="m0 0 3 3-1 5-3 3-5-1 5-9z" fill="#FFFFF8"/>
<path transform="translate(694,274)" d="m0 0 4 2-2 4-5 6h-2l-1-4z" fill="#FEFEF8"/>
<path transform="translate(1292,222)" d="m0 0 10 3-1 5-9-3-2-1z" fill="#FFFFF8"/>
<path transform="translate(787,203)" d="m0 0h1v22h-2l-2-3v-8l3-1z" fill="#FFFFF8"/>
<path transform="translate(756,516)" d="m0 0 5 1 5 3-1 4-5-1-5-3z" fill="#FEFEFB"/>
<path transform="translate(1214,170)" d="m0 0h7l-6 8-3 2-2-6z" fill="#FEFEF8"/>
<path transform="translate(1260,534)" d="m0 0 6 1v6l-1 1h-6v-7z" fill="#FEFEF8"/>
<path transform="translate(744,509)" d="m0 0 10 4-1 5-11-5z" fill="#FEFEF8"/>
<path transform="translate(999,468)" d="m0 0 1 2h2l1 2v8l-2 5-2-2z" fill="#BE6520"/>
<path transform="translate(654,401)" d="m0 0h7v7h-7z" fill="#FEFEF8"/>
<path transform="translate(1416,393)" d="m0 0h7v7h-7z" fill="#FFFFF8"/>
<path transform="translate(1413,257)" d="m0 0h1v13h-2l-1 8h-1v-20z" fill="#D6802A"/>
<path transform="translate(1128,490)" d="m0 0 1 3-7 14 3 2-1 2-7-3 2-3h2l2-5z" fill="#C16821"/>
<path transform="translate(1407,339)" d="m0 0h6l1 1v6h-7z" fill="#FEFEF8"/>
<path transform="translate(1417,339)" d="m0 0h6v7h-7v-6z" fill="#FEFEF8"/>
<path transform="translate(1032,335)" d="m0 0 4 1 14 15-1 3-16-17z" fill="#FEFEF8"/>
<path transform="translate(1259,545)" d="m0 0h6v8h-5l-1-1z" fill="#FEFEF9"/>
<path transform="translate(1250,545)" d="m0 0h6v7l-1 1h-5z" fill="#FFFFF8"/>
<path transform="translate(1189,532)" d="m0 0h6l1 1v5l-1 1h-6z" fill="#FEFEF8"/>
<path transform="translate(644,401)" d="m0 0h6l1 1v5l-1 1h-6z" fill="#FEFEFB"/>
<path transform="translate(1407,393)" d="m0 0h6v7h-6l-1-1v-5z" fill="#FFFFF8"/>
<path transform="translate(1417,329)" d="m0 0h6v7h-6l-1-1v-5z" fill="#FFFFF8"/>
<path transform="translate(690,291)" d="m0 0 3 3-6 8-4-1 2-4z" fill="#FFFFF8"/>
<path transform="translate(685,286)" d="m0 0 3 1-1 4-5 6-4-1 3-5z" fill="#FEFEF8"/>
<path transform="translate(1038,273)" d="m0 0h5l2 5-1 3-5 1z" fill="#FFFFF8"/>
<path transform="translate(657,338)" d="m0 0h5l1 1v6h-7v-6z" fill="#FEFEF9"/>
<path transform="translate(1250,534)" d="m0 0h5l1 1v7h-6z" fill="#FEFEF8"/>
<path transform="translate(685,513)" d="m0 0 4 2 6 5v2h-8z" fill="#FEFEF9"/>
<path transform="translate(1310,513)" d="m0 0 3 1 2 6-5 2-3-5 1-3z" fill="#FFFFF8"/>
<path transform="translate(699,280)" d="m0 0h3l-1 4-5 7-3-1 1-4z" fill="#FEFEF8"/>
<path transform="translate(1189,543)" d="m0 0h6l1 6-1 1h-5l-1-1z" fill="#FFFFF8"/>
<path transform="translate(1009,225)" d="m0 0 5 2v3h-2l-1 3-6 1 2-6z" fill="#BC631E"/>
<path transform="translate(1199,543)" d="m0 0h6v7h-6z" fill="#FEFEF8"/>
<path transform="translate(1199,532)" d="m0 0h6v7h-6z" fill="#FEFEF8"/>
<path transform="translate(1416,404)" d="m0 0h7v6h-7z" fill="#FFFFF8"/>
<path transform="translate(1406,404)" d="m0 0h7v6h-7z" fill="#FFFFF8"/>
<path transform="translate(654,391)" d="m0 0h7v6h-7z" fill="#FEFEF9"/>
<path transform="translate(646,339)" d="m0 0h7v6h-7z" fill="#FEFEF9"/>
<path transform="translate(1177,569)" d="m0 0 8 6 2 3-4 1-6-5-1-3z" fill="#FFFFF8"/>
<path transform="translate(1305,526)" d="m0 0h3l3 6-3 2h-3l-2-4v-3z" fill="#FFFFF8"/>
<path transform="translate(1303,517)" d="m0 0 3 3-1 5h-4l-2-6z" fill="#FFFFF8"/>
<path transform="translate(644,391)" d="m0 0h7v5l-1 1h-6z" fill="#FEFEFC"/>
<path transform="translate(646,328)" d="m0 0h6l1 1v5h-7z" fill="#FEFEF9"/>
<path transform="translate(1407,329)" d="m0 0h6l1 1v5h-7z" fill="#FFFFF8"/>
<path transform="translate(657,328)" d="m0 0h5l1 1v5l-2 1-5-1v-5z" fill="#FEFEFA"/>
<path transform="translate(1025,310)" d="m0 0 2 3-3 7-3 3-2-1 2-6z" fill="#FFFFF8"/>
<path transform="translate(865,205)" d="m0 0h5l1 1v6h-6z" fill="#FEFEFB"/>
<path transform="translate(789,175)" d="m0 0m-1 1m-2 1 2 1-2 3 2 1v3l-9 1 2-4z" fill="#A84911"/>
<path transform="translate(1146,442)" d="m0 0 5 2 13 8-4 1-14-9z" fill="#FEFEF9"/>
<path transform="translate(810,195)" d="m0 0 5 1v6h-6v-6z" fill="#FEFEFB"/>
<path transform="translate(1068,372)" d="m0 0 7 6 7 8h-3l-12-12z" fill="#FFFFF8"/>
<path transform="translate(1389,278)" d="m0 0 4 2-1 4-4 2-2-2 1-4z" fill="#FFFFF8"/>
<path transform="translate(1384,272)" d="m0 0 4 3-2 4-3 2-3-3 2-4z" fill="#FFFFF8"/>
<path transform="translate(1366,215)" d="m0 0 8 1v8l-7-6z" fill="#FFFFF8"/>
<path transform="translate(1315,522)" d="m0 0 3 4-1 3-4 1-2-3 1-4z" fill="#FFFFF8"/>
<path transform="translate(928,223)" d="m0 0 10 5v2l-6-2-6 2 1-6z" fill="#FEFEFC"/>
<path transform="translate(1014,464)" d="m0 0h2l-2 8h-4l-1-6z" fill="#C16820"/>
<path transform="translate(681,444)" d="m0 0 4 2-2 4-3 2-3-5z" fill="#FEFEFB"/>
<path transform="translate(1396,294)" d="m0 0v3l-8 10v-3l1-4 5-5z" fill="#D7812A"/>
<path transform="translate(966,241)" d="m0 0 1 2 4 1-1 4-5 2-1-3z" fill="#FFFFF8"/>
<path transform="translate(809,206)" d="m0 0h6v6h-6z" fill="#FEFEFB"/>
<path transform="translate(865,195)" d="m0 0h6v6h-6z" fill="#FEFEFA"/>
<path transform="translate(857,205)" d="m0 0h5v7h-5z" fill="#FEFEFC"/>
<path transform="translate(801,195)" d="m0 0h5v7h-5z" fill="#FEFEFC"/>
<path transform="translate(938,514)" d="m0 0 5 1-2 4-6 3 1-6z" fill="#C06720"/>
<path transform="translate(1382,286)" d="m0 0h3l1 5-2 2h-3v-2h-2l2-4z" fill="#FFFFF8"/>
<path transform="translate(1377,280)" d="m0 0 5 2v2l-4 3-4-2 2-4z" fill="#FFFFF8"/>
<path transform="translate(1e3 433)" d="m0 0 2 1v5l-1 1h-5l-1-3z" fill="#FFFFF8"/>
<path transform="translate(812,528)" d="m0 0 4 1v5l-4 1-1-1v-5z" fill="#FEFEFA"/>
<path transform="translate(830,519)" d="m0 0h11l-3 6-5-1 1-3z" fill="#FFFFF8"/>
<path transform="translate(679,457)" d="m0 0 4 2-2 4h-4v-4z" fill="#FEFEF8"/>
<path transform="translate(674,450)" d="m0 0 4 4-3 3-4-1v-3z" fill="#FEFEFA"/>
<path transform="translate(995,396)" d="m0 0 4 4-1 2h-7v-3z" fill="#BE641E"/>
<path transform="translate(757,226)" d="m0 0 3 1 2 5-4 2-3-5v-2z" fill="#FEFEF9"/>
<path transform="translate(704,208)" d="m0 0 6 1-5 5-4 2 1-6z" fill="#FEFEFA"/>
<path transform="translate(934,553)" d="m0 0 3 1 1 5h-7v-4z" fill="#BE6520"/>
<path transform="translate(787,550)" d="m0 0h5l-2 1 1 6h-3l-4-6z" fill="#A84911"/>
<path transform="translate(992,470)" d="m0 0 4 4-2 5-4-2 1-6z" fill="#BE6520"/>
<path transform="translate(1e3 419)" d="m0 0 3 2-1 5-4 2-1-4 1-2h2z" fill="#BE6520"/>
<path transform="translate(1088,339)" d="m0 0 2 1-5 6-3 3-3-3z" fill="#D37D28"/>
<path transform="translate(764,223)" d="m0 0h3l2 6-4 1-3-6z" fill="#FFFFF8"/>
<path transform="translate(801,206)" d="m0 0h5v6h-5z" fill="#FEFEFA"/>
<path transform="translate(857,195)" d="m0 0h5v6h-5z" fill="#FEFEFA"/>
<path transform="translate(686,451)" d="m0 0h2l2 4-3 3-3-1-1-4z" fill="#FEFEFC"/>
<path transform="translate(1083,392)" d="m0 0 7 6 4 5-5-2-6-6z" fill="#D6802A"/>
<path transform="translate(1304,232)" d="m0 0 9 3 3 2-1 4-1-3-6-2-4-2z" fill="#D6802A"/>
<path transform="translate(762,214)" d="m0 0h2l1 6-4 1-2-5z" fill="#FFFFF8"/>
<path transform="translate(811,538)" d="m0 0h5v5l-4 1-1-1z" fill="#FEFEFA"/>
<path transform="translate(803,529)" d="m0 0h5v5l-4 1-1-1z" fill="#FEFEFB"/>
<path transform="translate(1372,524)" d="m0 0 1 4-3 5-4 1 4-8z" fill="#FFFFF8"/>
<path transform="translate(1118,316)" d="m0 0h2v2l-11 8-2-1 3-4 7-4z" fill="#C46B22"/>
<path transform="translate(1278,569)" d="m0 0 3 1-1 5h-5l1-4z" fill="#FFFFF8"/>
<path transform="translate(757,513)" d="m0 0 5 1 5 4-4 1-7-3z" fill="#B25517"/>
<path transform="translate(1018,323)" d="m0 0 5 5 6 7-5-2-6-7z" fill="#BE6520"/>
<path transform="translate(754,218)" d="m0 0h3l1 5-5 1-1-5z" fill="#FEFEF9"/>
<path transform="translate(958,329)" d="m0 0 5 3 2 3-3 1-5-4z" fill="#FEFEF8"/>
</svg>
